<?xml version="1.0" encoding="utf-8"?>
<svg fill="#000000" version="1.1" id="Layer_1" xmlns="http://www.w3.org/2000/svg" xmlns:xlink="http://www.w3.org/1999/xlink" width="800px" height="800px" viewBox="0 0 260 174" enable-background="new 0 0 260 174" xml:space="preserve">
<path d="M252.59,84.22c-22.12,3.78-38.96,23.03-38.96,46.23c0,2.63,0.23,5.21,0.65,7.73c-1.7-0.12-3.42-0.19-5.15-0.19
	c-25.16,0-42.24,13.63-49.13,34.01h-60c-6.64-20.38-23.97-34.01-49.13-34.01c-1.73,0-3.45,0.07-5.15,0.19
	c0.42-2.52,0.65-5.1,0.65-7.73c0-23.2-16.84-42.45-38.96-46.23c11.11-9.31,18.18-23.28,18.18-38.91c0-18.03-9.41-33.87-23.59-42.85
	C5.24,2.15,8.53,2,11.85,2C42.9,2,70.8,15.46,90.03,36.88C83.73,46.99,80,59.56,80,73.18c0,20.74,8.188,39.615,21.83,49.92
	c4.51,3.407,9.144,2.374,11.898-0.304c2.828-2.75,2.825-7.778-0.338-11.076c-9.915-10.34-14.48-15.96-14.16-30.52
	c0.11-5.28,2.14-10.29,5.05-14.55c-1.57-0.17-3.21-0.77-4.57-1.82c-4.47-3.44-5.28-9.83-1.83-14.29c3.44-4.46,9.83-5.27,14.28-1.83
	c2.37,1.83,3.74,4.53,3.82,7.38c5.35-4.11,11.83-6.55,18.76-6.55c4.37,0,8.52,0.94,12.28,2.61c0.13-3.13,1.52-6.12,4.01-8.2
	c4.45-3.67,11.04-3.04,14.72,1.41c3.23,3.9,3.12,9.43-0.08,13.19c3.46,4.81,5.51,10.7,5.51,17.07c0,16.17-13.1,29.28-29.26,29.28
	c-4.27,0-8.31-0.92-11.96-2.56c-0.17,5.73,0.97,11.27,3.25,16.25c3.327,3.177,7.832,3.875,11.97,0.68
	C157.812,112.795,166,93.92,166,73.18c0-13.62-3.73-26.19-10.03-36.3C175.2,15.46,203.1,2,234.15,2c3.32,0,6.61,0.15,9.85,0.46
	c-14.18,8.98-23.59,24.82-23.59,42.85C220.41,60.94,227.48,74.91,252.59,84.22z"/>
</svg>
