<?xml version="1.0" encoding="utf-8"?>
<svg fill="#000000" version="1.1" id="Layer_1" xmlns="http://www.w3.org/2000/svg" xmlns:xlink="http://www.w3.org/1999/xlink" width="800px" height="800px" viewBox="0 0 260 201" enable-background="new 0 0 260 201" xml:space="preserve">
<path d="M149,199h-47c2.03-1.37,5.4-4.44,5.4-9.07c0-4.45-1.23-10.78-4.54-19.64c4.24-4.58,7.36-9.96,9.1-15.65
	c1.98,0.63,4,1.29,6.08,1.98c5.6,1.82,11.68,3.81,18.39,5.61c-3.62,5.24-8.52,10.03-15.13,14.49c-2.4,1.62-3.22,2.7-3.22,5.11
	c0,3.62,4.61,6.63,9.25,8.04c3.76,1.13,7.82,1.62,11.77,1.62C144,191.49,147.55,195.03,149,199z M218.05,72.03l-4.49-4.3
	c-3.11-3.67-3.49-9.1-5.91-14.59c-3.52-7.97-8.34-12.64-8.34-12.64c0,5.81-1.95,9.69-1.95,9.69s-6.913-3.684-15.93-2.594
	c-8.273,0.051-15.984-4.923-19.177-12.833l-0.004-0.012c0,0,0,0.001,0,0.002c0-0.001,0-0.001-0.001-0.002c0,0.002,0,0.003,0,0.005
	c-0.022,0.096-2.412,10.786,6.841,17.52c-12.61-2.62-21.39-0.3-26.7,6.93c-1.26,1.72-2.31,3.69-3.12,5.88
	c-6.26-1.88-14.51-3.53-24.28-3.88C95.64,60.69,64,70,64,70s31.64-4.69,52.93,2.84c-2.65,11.27,0.16,25.08,11.33,38.37
	c-14.96,4.38-30.53,15.76-43.46,35.92L74,147l11,1l-6,6l10-1l-4,5l9-1.5c0,0,12.39,15.38,32,13c0,0-8-4-9-14
	c12.52,5.75,27.07,4.16,35-8c0,0-5.58,0.54-10-1c15.29-4.84,23.76-18.25,19-36c0,0-3.17,5.49-8,8c6.71-13.22,5.2-26.2-4-34
	c-0.22-0.19-0.45-0.37-0.68-0.55c9.14-3.21,21.23-2.7,36.68,3.55c0,0-14-16-35-14c2.73-5.01,7.2-8.41,13.68-9.55
	c8.62-1.54,17.23,2.5,23.32,7.55c14,11.67,14,32,14,32s6-8,4-20c5.16,5.49,7.98,13.22,8,22c3.56-5.43,4.55-12.51,3-20
	c5.6,7.18,8.01,17.17,5,28c10.35-10.62,10.72-26.05,5.05-38.97L218.05,72.03z M117.44,131.62c-9.26-14.3-7.81-30.15,2.56-38
	C129.44,101.47,127.99,117.32,117.44,131.62z"/>
</svg>
