<?xml version="1.0" encoding="UTF-8"?>
<svg fill="#000000" width="800px" height="800px" viewBox="0 0 33.866668 33.866668" version="1.1" xmlns="http://www.w3.org/2000/svg">
 <path d="m16.643 1.4178s-0.0885 0.57481 0.08842 2.3439c-5.8821-2.4324-8.3586-1.6363-14.02 0.79611 16.717-1.9902 20.565 8.1376 20.565 8.1376s-0.53075-0.221-1.0172-0.5748c-0.13268 0.26536-1.7248 0.90652-2.6536 0.42003-0.82659-0.49622-0.96205-0.97432-0.92865-1.769 0.0339-0.80645 0.79611-1.6584 0.79611-1.6584s-3.0074-3.1843-8.4914-3.4497c-5.484-0.26536-7.8136 4.9023-7.8136 4.9023s0.81485-0.11481 2.0642 0.09526c-2.3882 3.3612-1.8133 8.2703-1.8133 8.2703s0.43128-0.66336 1.3711-1.4152c0.26536 3.1401 2.2997 5.7051 4.6879 8.3587-0.35381-1.1056-0.088489-2.2113 0.30955-3.4497-4.9975-4.688-4.2015-8.0049-3.0958-10.216-1.1499 5.086 1.2384 7.3414 3.8035 9.1989 2.5651 1.8575 3.3547 3.9993 3.4386 4.8428 0.15798 1.5885-0.32796 2.3366-0.88453 2.8195-0.71039 0.62517-1.8133 0.66057-2.9574 0.26536-1.1441-0.39521-1.9844-1.1499-1.9844-1.1499s-0.22115 0.53075 0.04421 1.5885c-0.99386-0.62238-1.8575-1.5442-2.4766-2.7658 0.30955 1.946 1.3268 3.8035 2.9162 4.9534-0.53075-0.035211-1.1499-0.22115-1.7248-0.62238 1.0172 2.2555 3.0516 3.9551 5.5281 4.4211 0.39521 0.08842 0.79611 0.13268 1.2018 0.13268 2.3439 0 4.3783-1.3711 5.2183-3.3168 0.044211-0.08842 0.08842-0.22115 0.13268-0.30955 0.08842-0.26536 0.13268-0.53075 0.17694-0.79611 0.26536 0.22115 0.57491 0.39521 0.92865 0.48364 0.92865 0.22115 1.946-0.26536 2.4324-1.2825 0.17694-0.35381 0.26536-0.75501 0.26536-1.1499 0.57491 0.13268 1.1057 0.26536 1.6363 0.35381 1.4597 0.22115 2.7215 0.13268 3.4054-0.57491 0.48364-0.48364 0.62238-1.1499 0.39521-1.9016 0.30955 0.17694 0.62238 0.35381 0.96299 0.48364 0 0 0.08842-3.8477-2.9162-7.3414 2.5208 0.62238 4.6437 2.3439 5.7935 4.6437 0.21836-5.7051-3.1843-10.26-7.4746-13.489 0.39521 1.2825 0.44215 2.6093 0.17694 3.8477-1.2825-2.1674-2.9574-4.0691-4.9975-5.6143z"/>
</svg>
